<svg xmlns="http://www.w3.org/2000/svg" viewBox="0 0 210 210" height="210mm" width="210mm"><g stroke="#1a5176" stroke-width="4.9" transform="translate(0 -87)"><path d="M162 154.8v66.7L104.4 255l-57.8-33.5v-66.7l57.8-33.4z" fill="none"/><path transform="matrix(1.19402 -.01254 .01233 1.17328 -22.426 -19.722)" d="M152.4 207.2l-48.4-.5-48.4-.5 24.6-42.4 24.7-42.4 23.7 43z" stroke-width="4.1" stroke-linejoin="bevel" fill="none"/><path d="M162 154.8H46.6l57.8 100z" stroke-linejoin="bevel" fill="none"/><path d="M132.8 171.6H75.5l29.3 50z" stroke-linejoin="bevel" fill="none"/><path d="M133.4 205.4H76l29.3-49.8z" stroke-linejoin="bevel" fill="none"/><path d="M132.8 171.6l29.3-16.8M46.5 154.8l29 16.7M76 205.5l-29.5 16M133.4 205.4l28.7 16M104.8 221.5l-.5 33.4M104.3 121.4l1 34.2M85 154.5l11.2 17M124.3 154l-9.6 16.8M96 206l-10.5 15.4M113.3 206l10.2 15M124.3 187.4l18.4.3M65.8 188l19.6.3M65.8 188h19.4" fill="none"/><ellipse cx="104.6" cy="155.9" rx="15.7" ry="15.7" stroke-linejoin="bevel" fill="none"/><ellipse cx="133" cy="171.9" rx="15.7" ry="15.7" stroke-linejoin="bevel" fill="none"/><ellipse cx="76" cy="172.3" rx="15.7" ry="15.7" stroke-linejoin="bevel" fill="none"/><ellipse cx="76.7" cy="205.2" rx="15.7" ry="15.7" stroke-linejoin="bevel" fill="none"/><ellipse cx="104.3" cy="221" rx="15.7" ry="15.7" stroke-linejoin="bevel" fill="none"/><ellipse cx="132.7" cy="204.4" rx="15.7" ry="15.7" stroke-linejoin="bevel" fill="none"/><ellipse cx="105.1" cy="188.5" rx="15.7" ry="15.7" stroke-linejoin="bevel" fill="none"/><ellipse cx="104.3" cy="123.9" rx="15.7" ry="15.7" stroke-linejoin="bevel" fill="none"/><ellipse cx="161.4" cy="155.3" rx="15.7" ry="15.7" stroke-linejoin="bevel" fill="none"/><ellipse cx="47.2" cy="155.3" rx="15.7" ry="15.7" stroke-linejoin="bevel" fill="none"/><ellipse cx="48" cy="220.6" rx="15.7" ry="15.7" stroke-linejoin="bevel" fill="none"/><ellipse cx="104.3" cy="253.2" rx="15.7" ry="15.7" stroke-linejoin="bevel" fill="none"/><ellipse cx="161.8" cy="221.4" rx="15.7" ry="15.7" stroke-linejoin="bevel" fill="none"/></g></svg>