<?xml version="1.0" encoding="UTF-8" standalone="no"?>
<svg
   xmlns:dc="http://purl.org/dc/elements/1.1/"
   xmlns:cc="http://creativecommons.org/ns#"
   xmlns:rdf="http://www.w3.org/1999/02/22-rdf-syntax-ns#"
   xmlns:svg="http://www.w3.org/2000/svg"
   xmlns="http://www.w3.org/2000/svg"
   height="32"
   width="32"
   id="svg6"
   xml:space="preserve"
   viewBox="0 0 32.00007 31.999999"
   version="1.1"
   enable-background="new 0 0 1535.5566 1693.9089"><metadata
     id="metadata12"><rdf:RDF><cc:Work
         rdf:about=""><dc:format>image/svg+xml</dc:format><dc:type
           rdf:resource="http://purl.org/dc/dcmitype/StillImage" /><dc:title></dc:title></cc:Work></rdf:RDF></metadata><defs
     id="defs10" /><g
     id="g4"
     transform="matrix(0.01908355,0,0,0.01908355,-19.394345,-4.3661538)"
     style="fill:#ffffff;fill-opacity:1;stroke:#ffffff;stroke-opacity:1"><path
       id="path2"
       d="m 1633,1876.8 h 781.67 c -32.843,-154.35 -72.15,-408.27 -55.23,-470.51 27.867,-105.55 117.92,-185.22 151.76,-269.86 172.16,-430.18 -38.201,-804.69 -513.98,-854.38 -420.11,-43.881 -653.79,194.67 -686.64,441.13 -3.4811,26.388 0,52.776 12.442,80.161 -57.715,90.119 -190.57,223.06 -202.01,286.79 -6.9684,38.337 38.311,51.78 60.206,65.224 20.899,6.9713 43.785,1.9905 57.715,18.92 9.9514,12.448 -3.4811,33.359 -6.4702,48.794 -0.4982,25.392 -30.346,37.84 -27.363,61.24 2.9891,19.916 19.903,27.883 35.328,40.33 16.421,12.944 -41.798,37.839 -22.892,60.743 19.404,22.404 47.77,48.295 37.813,80.16 -14.429,49.291 -42.296,100.57 -19.404,138.91 22.892,37.84 54.732,60.244 103.99,70.2 77.12,0 154.74,1.5035 232.36,1.5035 26.865,23.4 45.771,99.079 60.705,200.65 h -0.01 z"
       style="fill:#ffffff;fill-opacity:1;stroke:#ffffff;stroke-opacity:1" /></g></svg>